<?xml version="1.0" encoding="UTF-8"?>
<!DOCTYPE svg  PUBLIC '-//W3C//DTD SVG 1.0//EN'  'http://www.w3.org/TR/2001/REC-SVG-20010904/DTD/svg10.dtd'>
<svg width="157.61mm" height="61.454mm" clip-rule="evenodd" fill-rule="evenodd" image-rendering="optimizeQuality" shape-rendering="geometricPrecision" text-rendering="geometricPrecision" version="1.0" viewBox="0 0 25246 9844" xml:space="preserve" xmlns="http://www.w3.org/2000/svg">
 <defs>
  <style type="text/css">
   <![CDATA[
    .fil0 {fill:#00A0E3;fill-rule:nonzero}
    .fil1 {fill:#9D9E9E;fill-rule:nonzero}
   ]]>
  </style>
 </defs>
    <path class="fil0" d="m3172 5056l-31-562h155c32 181 90 320 175 419 84 98 189 148 314 148 110 0 201-34 275-101 74-66 110-151 110-254 0-169-152-350-456-545l-33-20c-214-135-355-253-423-352-67-98-101-217-101-354 0-182 66-335 197-457 132-122 297-183 495-183 86 0 178 12 276 33 98 23 226 63 383 122v479h-158c-28-169-83-298-163-386-80-89-183-133-308-133-102 0-184 27-245 82-62 55-93 128-93 220 0 80 28 157 84 228s155 152 299 244c19 11 48 30 87 55 390 252 585 500 585 743 0 212-70 381-209 508-140 127-326 190-560 190-97 0-200-10-311-32-111-20-226-52-344-92zm3024-2146c-192 0-348 103-471 311-122 209-184 480-184 815 0 325 55 579 165 762 110 182 261 273 454 273 188 0 335-96 442-287 106-193 160-458 160-799 0-353-47-621-144-803-95-182-236-272-422-272zm5-115c347 0 623 106 827 316 204 211 306 496 306 854 0 352-112 643-335 874-224 231-511 347-861 347-353 0-636-110-852-327-214-217-322-507-322-869 0-356 114-645 341-865 228-220 527-330 896-330zm3475 1737c-99 216-229 379-389 489s-349 165-568 165c-305 0-557-109-756-324-198-216-297-491-297-826 0-358 107-655 320-889 214-235 481-352 803-352 245 0 451 72 617 215 167 143 251 305 251 486 0 35-17 61-49 74s-100 20-205 20c-63 0-112-15-148-46-37-32-60-79-70-142-3-19-8-46-15-84-43-269-145-403-307-403-195 0-355 92-481 275-128 184-191 421-191 712 0 298 69 539 205 722 136 184 311 276 528 276 125 0 241-37 350-108 108-72 208-180 299-324l103 64zm963-2506c-87 0-155-26-206-79-51-52-76-121-76-207 0-97 32-179 95-246 64-68 141-102 232-102 88 0 156 25 207 76 49 51 74 122 74 213 0 97-32 178-95 245-63 66-140 100-231 100zm238 816v2094h265v161h-1076v-161h286v-1658c0-39-10-70-32-91-21-23-52-35-94-38l-160-11v-192l811-104zm1965 1918v-686c-260 51-447 118-559 203s-169 198-169 338c0 90 26 162 79 215 52 53 121 80 208 80 47 0 101-9 161-28s153-59 280-122zm774 258c-124 45-235 78-333 102-100 23-180 35-243 35-54 0-99-13-132-39-34-26-51-60-51-102v-61c0-6-4-13-13-18-8-5-18-8-27-9-12 0-25 1-38 3-14 3-24 5-31 9l-228 108c-93 46-178 80-253 101-76 22-147 33-215 33-140 0-251-41-332-125-80-84-120-200-120-349 0-222 94-390 283-504 189-115 509-193 959-238l20-737v-14c0-89-23-150-69-187-45-36-123-54-235-54-63 0-124 4-184 14-60 9-120 22-181 39-28 270-66 445-115 525-49 78-126 118-229 118-51 0-90-17-116-52-27-34-40-85-40-150 0-197 104-358 309-483 206-125 458-188 756-188 218 0 377 46 475 139 100 92 149 240 149 443v1508h234v133zm399 79v-156h291v-3466h-395v-161c149-5 300-16 453-33 152-17 308-40 467-71v3731h265v156h-1081z"/>
    <path class="fil0" d="m9494 7977v-156h265v-1772l-327-16v-223l806-115 16 125c3 27 9 48 20 63 10 13 24 21 43 21 15 0 58-15 129-46 243-105 455-157 633-157 122 0 229 22 320 68 90 46 159 111 205 196 196-87 372-152 528-197s286-67 391-67c234 0 398 65 495 194 96 129 145 385 145 767v1159h260v156h-1040v-156h255v-1491c0-145-36-248-106-310-70-60-187-91-351-91-156 0-274 18-354 56-79 37-119 92-119 163v1673h260v156h-1045v-156h260v-1491c0-139-36-241-107-305s-180-96-329-96c-160 0-278 18-351 51-75 34-112 88-112 162v1679h255v156h-1045zm4873-1492h813c45 0 79-8 101-27 22-17 33-45 33-82 0-177-39-317-117-423s-181-159-309-159c-122 0-232 64-330 192s-162 294-191 499zm1450 942c-116 213-254 371-415 476-160 105-344 157-555 157-318 0-577-107-777-319s-299-486-299-821c0-350 109-645 327-885s487-360 805-360c261 0 475 82 643 246 167 165 251 365 251 602 0 37-8 61-24 76-16 14-44 21-85 21l-1341 3c-5 49-9 93-12 132-2 39-3 74-3 106 0 286 63 509 190 670 128 162 303 243 526 243 127 0 247-34 360-101 114-68 223-171 329-310l80 64zm2080 44v-1402c0-79-31-137-91-173-59-37-155-55-284-55-234 0-427 98-581 294-153 196-229 446-229 750 0 281 69 508 207 681 137 173 318 260 541 260 131 0 236-25 316-76 81-50 121-117 121-200v-79zm415-3381h109v3682l312-20v146l-796 115-46-192c-130 68-247 118-352 150s-207 47-308 47c-312 0-572-107-777-321-206-214-309-484-309-811 0-347 111-632 334-855 222-224 512-336 867-336 81 0 166 7 254 22s187 39 297 73v-1280c0-52-11-88-31-107-21-18-69-27-147-27h-243v-167c152-3 297-14 436-34s272-49 400-85zm1369 816c-87 0-155-26-206-79-51-52-76-121-76-208 0-96 32-178 95-246 64-68 141-101 232-101 88 0 156 25 207 76 49 50 74 121 74 213 0 96-32 177-95 244s-140 101-231 101zm238 815v2095h265v161h-1076v-161h286v-1659c0-39-10-69-32-91-21-22-52-35-94-38l-160-10v-193l811-104zm1965 1919v-687c-260 51-447 119-559 203-112 85-169 198-169 338 0 90 26 162 79 216 52 53 121 80 208 80 47 0 101-10 161-28 60-19 153-60 280-122zm774 258c-124 44-235 78-333 101-100 24-180 36-243 36-54 0-99-13-132-39-34-26-51-61-51-102v-61c0-7-4-13-12-18-9-6-19-9-28-10-12 0-25 1-38 4-14 2-24 5-31 8l-228 109c-93 45-178 79-253 101-76 22-147 33-215 33-140 0-251-42-332-126-80-84-120-200-120-349 0-222 94-390 283-504s509-193 959-237l20-737v-15c0-88-23-150-69-186-45-36-123-55-235-55-63 0-124 5-184 14-60 10-120 23-181 39-27 270-66 445-115 525-49 79-126 119-229 119-51 0-90-18-116-52-26-35-39-85-39-151 0-197 103-358 308-482 206-126 458-188 756-188 218 0 377 46 475 138 100 92 149 240 149 444v1507h234v134z"/>
   <path class="fil1" d="m15313 3013h-72v-49l72-6c0-6 0-14-1-27v-26c0-128 18-227 54-295 36-69 87-103 154-103 29 0 49 2 61 7 11 4 17 12 17 23v27c0 9-1 16-3 20-1 4-4 6-8 6-2 0-7-1-14-3-4-1-7-2-9-3l-43-10c-11-3-21-5-30-7-10-1-18-2-25-2-21 0-36 15-44 44-7 29-11 107-11 234v65c0 15 1 29 2 42l97-4h9c32-2 58-4 77-6v62l-150 4c-16 1-26 3-30 6-4 4-5 10-5 20v449h111v38h-274c-1-2-1-3-1-3v-11c1-4 1-6 1-7s0-3-1-5v-10c0-1 0-2 1-2h65v-468zm529 472h68v34h-235v-34h70v-490h-72v-47l165-21 1 44c0 8 1 13 3 16 2 4 5 5 8 5 1 0 17-12 49-36 32-25 66-37 101-37 7 0 14 1 20 2 6 0 12 2 17 3v61c0 7-2 13-7 15-6 3-19 5-39 5h-62c-8 0-16 1-23 1h-3c-40 3-61 14-61 35v444zm427-791c-15 0-27-5-37-15-9-10-14-23-14-39 0-18 6-33 18-47 12-13 25-20 40-20 17 0 30 5 39 15 10 10 14 23 14 41 0 19-6 34-17 47-11 12-25 18-43 18zm-66 783v-447c0-14-2-23-6-26-3-3-12-5-26-7l-39-6v-39l167-22v547l76 6v36h-231c-8 0-14-2-17-5-4-3-5-8-5-15 0-5 1-10 5-13 3-4 9-5 15-5l61-4zm430-353h250c6 0 11-2 13-6 3-4 4-12 4-24 0-45-12-81-35-108-24-26-55-40-94-40-23 0-46 7-70 21s-45 34-64 60c-11 14-20 30-27 46s-11 28-11 36c0 6 2 10 5 12s10 3 20 3h9zm340 251l22 12c-29 54-62 93-100 117-37 24-84 36-139 36-78 0-141-28-191-85s-75-130-75-220c0-91 26-166 79-226 52-60 117-90 195-90 68 0 123 19 165 57s63 87 63 147c0 9-2 16-5 19-2 3-8 5-16 5h-343c-22 0-35 3-40 10s-8 24-8 51c0 78 21 142 63 192 42 51 96 77 161 77 36 0 68-9 96-25 28-17 52-43 73-77zm219 110v-469l-80-5v-59l164-22 4 34c0 6 2 10 5 14 3 3 7 5 12 5 1 0 23-9 69-26 46-18 89-27 131-27 70 0 119 16 145 47s39 95 39 189v319h69v34h-236v-34h70v-405c0-38-12-66-35-83s-62-25-115-25c-47 0-83 6-108 18-24 13-37 30-37 54v441h68v34h-235v-34h70zm1130-65v-407c0-19-8-32-22-39-15-8-40-11-76-11-80 0-143 23-190 70-46 47-69 111-69 192 0 78 22 141 65 187 44 47 102 70 175 70 44 0 74-4 91-14 17-9 26-25 26-48zm97 49c0 1 1 3 3 5s4 3 5 3l61-3v37l-160 19-1-32c0-3-2-5-5-8-4-3-7-4-10-4-2 0-10 3-22 8-58 24-113 36-166 36-75 0-137-28-186-82-49-55-73-124-73-209 0-92 28-167 84-224 57-56 132-85 226-85 37 0 74 5 113 16 9 2 14 3 16 3 5 0 9-1 13-4 3-3 5-7 5-12l-3-337c0-10-2-16-4-18-3-3-10-4-22-4l-77-2v-41c37-2 71-6 102-10 32-5 61-10 89-17h12v965zm528-392h-26c-10-46-24-79-42-100s-42-32-72-32-55 10-74 29c-20 19-30 43-30 71 0 38 40 82 122 134l16 10c2 2 7 5 12 8 78 49 117 103 117 163 0 51-18 94-52 128-35 35-79 52-131 52-26 0-52-3-79-10-27-8-54-18-81-32l-11-138h30c8 48 25 86 49 113s53 40 87 40c32 0 57-10 77-31s29-47 29-80c0-29-8-55-24-77-17-21-52-48-104-80l-7-3c-83-51-125-106-125-164 0-46 16-84 49-115 33-30 74-45 125-45 22 0 45 4 68 11 24 8 49 20 77 36v112z"/>
   <path class="fil1" d="m8990 988c11 2 21 3 33 5 11 1 25 1 40 1 80 0 145-24 195-71 49-48 74-110 74-187 0-79-21-142-64-190-43-47-100-71-170-71-41 0-69 4-84 13-16 8-24 24-24 46v454zm-160 387v-34h63v-831c0-2-1-3-4-5-2-2-3-3-5-3h-60v-43c0-3 1-6 4-10 3-3 7-5 12-6l137-18 8 31c0 3 2 6 5 8s7 4 11 4c3 0 24-7 65-21 40-14 79-21 116-21 72 0 133 28 181 84 48 57 72 129 72 216s-28 159-86 215-131 84-222 84c-19 0-41-2-64-5-23-4-47-9-73-16l5 337h89v34h-254zm791-394v-889c0-10-1-16-4-19-2-2-9-3-21-3l-78-2v-41c37-3 71-6 102-11 32-4 61-9 87-16h12v455c0 6 2 11 4 14 4 4 8 5 12 5s14-3 32-10c60-25 113-38 159-38 71 0 119 15 146 47 26 31 39 94 39 189v319h69v33h-236v-33h69v-405c0-38-11-66-35-83-23-17-61-25-114-25-47 0-83 6-108 18s-37 30-37 53v442h68v33h-235v-33h69zm973-540c-57 0-104 26-141 79s-56 122-56 207c0 89 17 158 50 209 33 50 78 76 136 76 56 0 102-26 136-77s51-119 51-204c0-96-15-168-44-217-30-49-74-73-132-73zm4-26c83 0 150 27 201 81 50 54 76 126 76 214 0 97-28 175-82 236-55 60-125 90-211 90-90 0-161-27-212-82-51-54-77-129-77-224 0-94 28-170 85-228 56-58 130-87 220-87zm461 566v-470l-80-4v-59l164-22 4 34c1 5 3 10 6 13 3 4 7 6 11 6 1 0 24-9 69-27 46-17 89-26 131-26 70 0 119 15 145 47 26 31 40 94 40 189v319h69v33h-236v-33h69v-405c0-38-12-66-35-83s-61-25-115-25c-47 0-83 6-107 18-25 12-37 30-37 54v441h67v33h-234v-33h69zm814-361h250c6 0 11-2 13-6 3-4 4-12 4-24 0-45-12-81-35-108s-55-40-94-40c-23 0-46 7-70 21s-45 34-64 59c-11 15-20 30-27 47-7 16-11 28-11 36 0 6 2 9 5 11 3 3 10 4 20 4h9zm340 251l22 12c-29 54-62 93-100 117-37 24-84 36-139 36-78 0-141-28-191-85s-75-130-75-220c0-91 26-166 79-226 52-60 117-90 195-90 68 0 123 19 165 57 42 37 63 86 63 146 0 10-2 16-5 20-2 3-8 5-16 5h-343c-22 0-35 3-40 10s-8 24-8 51c0 77 21 142 63 192 42 51 96 76 161 76 36 0 68-8 96-25 28-16 53-42 73-76z"/>
   <path class="fil1" d="m11679 1918v396c0 33 5 54 14 62 9 9 30 14 63 14 84 0 150-26 201-78s76-121 76-206c0-76-23-138-69-184-46-47-106-71-181-71-37 0-64 6-80 16s-24 27-24 51zm-201-463l1-42c36-2 70-5 101-9 31-5 61-10 88-17h12l-2 466c34-13 66-23 98-30 31-6 61-10 90-10 81 0 146 26 195 77 50 51 75 117 75 199 0 101-31 180-93 238-62 57-148 86-258 86-29 0-58-2-89-5-30-3-45-5-46-5-33 0-52-1-59-5-6-4-10-11-10-22v-896c0-10-1-16-4-19-2-2-10-4-23-4l-76-2zm832 913v-889c0-10-1-16-4-19-2-2-10-3-22-3l-77-2v-42c36-2 70-5 102-9 31-5 59-10 86-17h13v981h67v34h-234v-34h69zm590-540c-57 0-104 27-141 79-37 53-56 122-56 207 0 89 17 159 50 209 33 51 78 76 136 76 57 0 102-25 136-76s51-119 51-204c0-96-15-169-44-217-30-49-74-74-132-74zm5-25c83 0 149 27 200 81s76 125 76 214c0 96-28 174-82 235-54 60-125 91-211 91-90 0-160-28-212-82-51-55-77-130-77-225 0-93 28-169 85-227 56-59 130-87 221-87zm538 657c-15 0-27 1-35 4-7 2-15 6-23 11-26 21-47 43-62 67-14 25-22 48-22 70 0 39 16 70 47 93 30 23 72 35 123 35 81 0 150-19 207-55s86-79 86-129c0-16-3-30-10-41-6-12-15-20-27-25-20-7-57-14-111-20-54-7-111-10-173-10zm130-617c-54 0-96 16-127 49-31 32-47 76-47 131 0 47 13 84 38 111 26 28 61 41 106 41 42 0 73-13 91-40 19-27 28-72 28-134v-12c0-69-6-111-17-125s-35-21-72-21zm155-9l96-11h6c7 0 12 2 14 5 3 2 4 7 4 14 0 17-1 29-4 36-3 6-8 10-15 12l-84 12c1 20 2 37 3 51s1 24 1 31c0 61-14 109-41 145-28 36-69 61-125 74-22 5-52 11-90 17-91 17-136 45-136 86 0 22 8 37 25 47s50 16 101 20l161 12c69 6 118 20 149 43 31 24 47 59 47 104 0 74-33 134-99 182s-151 72-254 72c-68 0-121-17-159-49-38-33-57-79-57-138 0-31 7-60 20-87 13-28 33-55 59-80-21-13-37-27-47-43s-15-34-15-53c0-34 12-62 36-83 25-22 64-39 118-53-41-20-72-45-93-76s-31-66-31-106c0-63 19-115 59-155s92-60 154-60c37 0 75 9 115 28 12 5 20 8 23 8 6 0 19-1 39-3 9-1 16-2 20-2z"/>
   <path class="fil1" d="m19930 3063h-72v-49l72-5c0-6 0-15-1-27v-26c0-128 18-227 54-296 36-68 87-102 154-102 29 0 49 2 61 7 11 4 17 12 17 22v27c0 10-1 16-3 20-1 4-4 6-8 6-2 0-7-1-14-2-4-2-7-2-9-3l-43-11c-11-2-21-4-30-6-10-1-18-2-25-2-21 0-36 14-44 43-7 30-11 108-11 235v65c0 15 1 29 2 42l97-4c2-1 5-1 9-1 32-2 58-4 77-6v63l-150 4c-16 1-26 3-30 6-3 3-5 10-5 19v449h111v38h-274c-1-1-1-2-1-3v-11c1-3 1-5 1-6s0-3-1-5v-10c0-2 1-2 1-3h65v-468zm681 402v-164c-75 6-134 23-176 51-43 28-64 63-64 105 0 23 7 43 22 58 14 14 33 22 56 22 21 0 45-4 72-12 27-7 51-18 73-31 6-3 11-7 14-12 2-4 3-10 3-17zm0-181l9-211v-3c0-21-8-37-24-46-15-10-40-15-74-15-18 0-37 2-56 5-19 4-38 9-59 17-3 53-10 89-20 108-10 20-25 30-44 30-9 0-16-4-20-12s-6-20-6-35c0-24 2-41 7-50 5-10 15-21 29-32 28-20 63-37 106-50 43-14 85-20 125-20s72 10 95 29c24 20 35 47 35 81v440l71-1v35c-31 9-57 16-80 21-22 5-39 7-50 7-17 0-29-3-36-9s-11-17-11-32l3-22c0-3-1-5-2-6s-3-2-4-2c-2 0-5 1-8 2-4 1-7 2-11 5l-70 40c-20 11-39 19-59 24-20 6-39 9-59 9-33 0-60-11-82-34-22-22-33-51-33-85 0-58 28-103 83-134 56-32 137-49 245-54zm784 159c-28 50-61 87-102 111-40 25-86 37-139 37-76 0-138-28-185-84-48-56-72-129-72-220 0-95 26-171 77-230 51-58 118-87 202-87 60 0 113 17 156 53 43 35 65 76 65 122 0 12-3 19-7 21-4 3-16 5-34 5-16 0-27-4-34-11-8-7-14-21-21-42-1-6-3-15-6-28-13-61-45-92-95-92-62 0-112 25-150 74-39 48-58 113-58 194 0 80 20 143 59 191s91 72 156 72c35 0 67-9 94-26 28-17 51-43 71-77l23 17zm247-268h250c6 0 11-2 13-6 3-4 4-12 4-24 0-45-12-81-35-108-24-27-55-40-94-40-23 0-46 7-70 21s-45 33-64 59c-11 15-20 30-27 47-7 16-11 28-11 36 0 5 2 9 5 11s10 4 20 4h9zm340 251l22 11c-29 55-62 94-100 118-37 24-84 36-139 36-78 0-141-28-191-85s-75-131-75-220c0-91 26-167 79-226 52-60 117-90 195-90 68 0 123 19 165 57 42 37 63 86 63 146 0 10-2 16-5 20-2 3-8 5-16 5h-343c-22 0-35 3-40 10s-8 24-8 50c0 78 21 142 63 193s96 76 161 76c36 0 68-8 96-25s52-42 73-76zm301-341v396c0 33 5 54 14 63s30 13 63 13c84 0 151-26 201-78 51-52 76-121 76-205 0-77-23-138-69-185s-106-70-180-70c-38 0-64 5-80 15-17 11-25 27-25 51zm-200-462v-42c36-3 70-6 101-10 32-4 61-10 88-16h13l-3 465c34-13 67-23 98-30 31-6 61-9 90-9 81 0 146 25 196 76s74 118 74 199c0 101-31 181-93 238s-148 86-258 86c-29 0-58-1-88-5-31-3-46-4-47-4-32 0-52-2-58-6-7-3-10-11-10-22v-896c0-10-2-16-4-18-3-3-11-4-23-4l-76-2zm1066 373c-58 0-105 26-141 79-37 53-56 122-56 207 0 89 17 158 49 209 33 50 79 76 137 76 56 0 101-26 136-77 34-51 51-119 51-204 0-96-15-168-45-217-29-49-73-73-131-73zm4-26c83 0 150 27 201 81 50 54 76 125 76 214 0 96-28 175-82 235-55 61-125 91-211 91-90 0-161-27-212-82-51-54-77-129-77-225 0-93 28-169 85-227 56-58 130-87 220-87zm683 26c-57 0-104 26-141 79s-55 122-55 207c0 89 16 158 49 209 33 50 78 76 136 76 57 0 102-26 136-77s52-119 52-204c0-96-15-168-45-217s-74-73-132-73zm5-26c83 0 150 27 200 81 51 54 76 125 76 214 0 96-27 175-82 235-54 61-125 91-211 91-90 0-160-27-212-82-51-54-77-129-77-225 0-93 28-169 85-227 56-58 130-87 221-87zm460 565v-887c0-10-1-17-4-19-2-3-10-4-22-4l-77-2v-41c37-3 71-6 102-11 31-4 60-9 87-16h12v701c0 4 0 7 2 10s3 5 6 5c2 0 4-1 6-3 3-1 5-4 8-7l191-213-62-8v-35l192-13v43c-24 0-45 3-62 8-18 5-31 13-41 23l-159 164 233 262c11 12 22 21 32 28 11 7 21 11 31 13v36h-117l-224-259c-3-4-7-7-10-9-4-2-8-3-11-3-6 0-10 1-12 4s-3 9-3 16v217h68v34h-235v-34h69z"/>
   <path class="fil1" d="m6976 2065h-26c-10-46-24-79-42-100s-42-32-72-32-55 10-75 29-30 43-30 71c0 38 41 83 122 134l17 10c2 2 6 5 12 8 78 49 117 104 117 163 0 51-18 94-53 129-35 34-78 52-130 52-26 0-52-4-79-11-28-7-55-18-82-32l-10-138h30c8 49 24 86 48 113s54 41 88 41c32 0 57-11 77-31 20-21 29-48 29-81 0-29-8-55-25-76-16-22-51-49-104-81l-6-3c-84-51-125-106-125-164 0-46 16-84 49-114 33-31 74-46 124-46 23 0 45 4 69 11 24 8 49 20 77 36v112zm292 47h249c7 0 11-2 14-6 2-4 4-12 4-24 0-45-12-80-35-107-24-27-55-40-94-40-23 0-47 7-71 20-23 14-45 34-64 60-11 14-20 30-27 46-7 17-10 29-10 37 0 5 1 9 4 11s10 3 20 3h10zm340 251l21 12c-28 54-61 94-99 117-38 25-85 37-140 37-77 0-141-29-191-86-49-57-74-130-74-220 0-91 26-166 78-226s117-89 196-89c68 0 122 18 164 56 43 38 64 87 64 147-1 10-2 16-5 19-3 4-9 5-17 5h-343c-21 0-34 4-40 11-5 7-8 23-8 50 0 78 21 142 64 193 42 51 95 76 160 76 37 0 69-8 97-25s52-42 73-77zm468 40v-165c-75 7-134 24-177 52-42 28-63 63-63 104 0 24 7 44 21 58 15 15 33 22 56 22 22 0 46-3 73-11s51-18 72-31c7-4 12-8 14-12 3-4 4-10 4-17zm0-181l8-212v-2c0-21-7-37-23-47-15-9-40-14-75-14-17 0-36 2-55 5-19 4-39 9-59 17-3 52-10 88-20 108s-25 30-45 30c-9 0-15-4-19-12-5-8-7-20-7-36 0-23 3-40 8-50s15-20 29-31c28-21 63-38 106-51s84-19 125-19c40 0 72 9 95 29s35 46 35 81v440l70-1v35c-30 9-57 16-79 21-23 5-40 7-51 7-16 0-28-3-35-9-7-7-11-18-11-33l3-21c0-3-1-5-2-6-2-1-3-2-5-2s-4 0-8 1c-3 2-7 3-10 5l-70 40c-20 11-40 19-59 25-20 6-40 9-59 9-33 0-61-12-83-34-22-23-33-51-33-85 0-58 28-103 84-135 55-31 137-49 245-53zm462 251h68v34h-234v-34h69v-490h-72v-47l165-21 2 44c0 8 1 13 2 17 2 3 5 5 8 5 1 0 18-12 50-37 32-24 65-36 100-36 7 0 14 0 20 1 7 1 12 2 18 4v60c0 8-3 13-8 16-6 3-19 4-39 4h-61c-9 0-17 1-24 1h-3c-40 3-61 15-61 35v444zm775-92c-27 50-61 86-101 111-40 24-86 37-140 37-75 0-137-28-184-84-48-56-72-130-72-220 0-95 26-172 77-230s118-87 201-87c61 0 113 17 157 52 43 36 64 77 64 122 0 12-2 20-6 22-5 3-16 4-34 4-16 0-27-3-35-10-7-7-14-21-20-43-1-6-3-15-6-27-13-61-45-92-95-92-62 0-112 24-150 73-39 49-58 114-58 195 0 80 20 143 59 191s91 71 156 71c35 0 67-8 94-26 28-17 51-42 71-77l22 18zm184 92v-888c0-10-1-17-4-19-3-3-10-4-22-4l-77-2v-40c37-3 71-7 102-11s60-10 87-17h12v456c0 6 1 10 4 14 3 3 7 5 12 5 4 0 14-3 31-10 60-26 114-39 160-39 70 0 119 16 145 47 26 32 40 95 40 190v318h69v34h-236v-34h69v-405c0-38-12-66-35-83-23-16-61-25-114-25-48 0-84 6-108 19-25 12-37 30-37 53v441h67v34h-234v-34h69z"/>
   <path class="fil1" d="m497 6128c-27 50-61 87-101 111-40 25-87 37-140 37-76 0-137-28-185-84-47-56-71-130-71-220 0-95 26-172 76-230 51-58 119-87 202-87 61 0 113 17 156 53 43 35 65 76 65 122 0 11-2 19-6 21-5 3-16 4-35 4-15 0-27-3-34-10s-14-21-20-42c-1-6-3-15-6-28-14-61-46-92-95-92-63 0-113 25-151 73-38 49-57 114-57 195 0 80 19 143 58 191 40 48 91 71 156 71 36 0 68-8 95-25s51-43 71-78l22 18zm406-448c-57 0-104 27-141 80-37 52-56 121-56 207 0 88 17 158 50 208 33 51 78 76 136 76 56 0 102-25 136-76s51-119 51-204c0-96-15-168-44-217-30-49-74-74-132-74zm5-25c82 0 149 27 200 81 50 54 76 125 76 214 0 96-28 175-82 235-55 61-125 91-211 91-90 0-160-28-212-82-51-54-77-130-77-225 0-93 28-169 85-227 56-58 130-87 221-87zm460 565v-469l-80-4v-60l164-21 4 34c1 5 3 9 6 13 3 3 7 5 12 5 0 0 23-9 68-26 46-18 89-26 131-26 43 0 77 5 102 16 25 10 45 28 61 53 47-24 90-41 126-53 37-11 71-16 102-16 70 0 119 15 146 47 26 31 40 94 40 189v318h69v34h-236v-34h69v-404c0-39-12-66-34-83-24-17-62-25-115-25-48 0-83 6-108 18s-37 30-37 53v441h67v34h-234v-34h69v-404c0-39-12-66-35-83s-61-25-114-25c-48 0-84 6-108 18-25 12-37 30-37 53v441h67v34h-234v-34h69zm1142 0v-469l-80-4v-60l164-21 4 34c1 5 2 9 5 13 3 3 7 5 12 5 1 0 24-9 69-26 46-18 89-26 131-26s76 5 102 16c25 10 45 28 60 53 48-24 90-41 127-53 37-11 71-16 101-16 71 0 120 15 146 47 27 31 40 94 40 189v318h69v34h-236v-34h70v-404c0-39-12-66-35-83s-61-25-115-25c-47 0-83 6-108 18-24 12-37 30-37 53v441h68v34h-235v-34h70v-404c0-39-12-66-35-83s-61-25-115-25c-47 0-83 6-108 18-24 12-37 30-37 53v441h68v34h-234v-34h69zm1132-489h-73v-48l169-20v392c0 68 11 112 33 134 22 21 68 31 139 31 46 0 78-5 96-14 17-9 27-26 27-49v-426h-72v-48l169-20v517c0 9 2 15 4 19 3 3 8 5 15 5h50v39c-30 8-53 12-69 15s-28 4-37 4c-18 0-33-5-45-16s-20-17-23-17c-5 0-15 3-32 8-60 19-115 28-164 28-72 0-120-16-146-48s-39-112-40-238l-1-248zm760 489v-469l-80-4v-60l164-21 4 34c0 5 2 9 5 13 3 3 7 5 12 5 1 0 23-9 69-26 46-18 89-26 131-26 70 0 119 15 145 47 26 31 39 94 39 189v318h69v34h-236v-34h70v-404c0-39-12-66-35-83s-61-25-115-25c-47 0-83 6-108 18-24 12-37 30-37 53v441h68v34h-235v-34h70zm820-790c-15 0-27-6-37-16-9-10-14-23-14-39 0-18 6-33 18-46 12-14 25-20 40-20 17 0 30 5 39 15 10 9 14 23 14 40 0 19-6 35-17 47s-25 19-43 19zm-66 782v-447c0-14-2-22-6-25-3-3-12-6-26-8l-39-5v-40l167-21v546l76 7v35h-231c-8 0-14-1-17-5-4-3-5-8-5-14s1-10 5-14c3-3 9-5 15-5l61-4zm785-84c-28 50-62 87-102 111-40 25-86 37-139 37-76 0-138-28-185-84-48-56-72-130-72-220 0-95 26-172 77-230s118-87 201-87c61 0 114 17 157 53 43 35 65 76 65 122 0 11-3 19-7 21-5 3-16 4-34 4-16 0-27-3-34-10-8-7-14-21-21-42-1-6-3-15-6-28-13-61-45-92-95-92-62 0-112 25-150 73-39 49-58 114-58 195 0 80 20 143 59 191s91 71 156 71c35 0 67-8 94-25 28-17 51-43 71-78l23 18zm433 22v-164c-75 6-134 23-177 51-42 28-63 63-63 105 0 23 7 43 21 57 14 15 33 23 56 23 22 0 46-4 73-12s51-18 72-31c7-4 11-8 14-12 2-4 4-10 4-17zm0-181l8-211v-3c0-21-7-37-23-47-15-9-41-14-75-14-18 0-36 2-55 5-19 4-39 9-59 17-3 52-10 89-20 108-10 20-25 30-45 30-9 0-15-4-19-12-5-8-7-20-7-36 0-23 3-40 8-50s15-20 29-31c27-20 63-37 106-50 42-14 84-20 125-20 40 0 72 10 95 29 23 20 35 47 35 81v440l70-1v35c-30 9-57 16-79 21-23 5-40 7-51 7-16 0-28-3-35-9-7-7-11-17-11-32l3-22c0-3-1-5-2-6-2-1-3-2-5-2s-4 1-8 2c-3 1-7 2-10 5l-70 39c-20 11-40 20-60 25-19 6-39 9-58 9-33 0-61-11-83-34-22-22-33-51-33-85 0-58 28-103 84-134 55-32 137-50 245-54zm651-294v59l-162 4c-21 1-32 38-33 111v13l-3 189v27c0 67 7 109 20 129 14 20 40 29 77 29 19 0 37-1 54-4s34-7 51-13l3 13c-32 14-63 25-94 33-31 7-59 11-86 11-45 0-77-12-95-37-17-24-26-70-26-136v-12l4-345-74 1-1-49 61-3c8 0 14-1 17-4 3-4 5-9 5-16l5-235h96l-5 250 84-4c16-1 33-2 50-4 16-2 34-4 52-7zm263-245c-15 0-27-6-37-16s-15-23-15-39c0-18 6-33 18-46 12-14 26-20 41-20 16 0 30 5 39 15 9 9 14 23 14 40 0 19-6 35-17 47s-26 19-43 19zm-67 782v-447c0-14-1-22-5-25s-13-6-27-8l-38-5v-40l167-21v546l76 7v35h-232c-7 0-13-1-16-5-4-3-6-8-6-14s2-10 6-14c3-3 8-5 15-5l60-4zm589-532c-57 0-104 27-141 80-37 52-56 121-56 207 0 88 17 158 50 208 33 51 78 76 136 76 56 0 102-25 136-76s51-119 51-204c0-96-15-168-44-217-30-49-74-74-132-74zm5-25c83 0 149 27 200 81 50 54 76 125 76 214 0 96-28 175-82 235-54 61-125 91-211 91-90 0-160-28-212-82-51-54-77-130-77-225 0-93 28-169 85-227 56-58 130-87 221-87zm460 565v-469l-80-4v-60l164-21 4 34c1 5 3 9 6 13 3 3 7 5 12 5 0 0 23-9 69-26 45-18 88-26 130-26 70 0 119 15 145 47 27 31 40 94 40 189v318h69v34h-236v-34h69v-404c0-39-12-66-35-83s-61-25-114-25c-48 0-84 6-108 18-25 12-37 30-37 53v441h67v34h-234v-34h69z"/>
   <path class="fil1" d="m17526 1696v58l-162 4c-21 1-32 38-34 111v13l-3 189v27c0 67 7 110 21 129 14 20 39 30 77 30 19 0 37-2 54-4 17-3 34-8 51-13l2 13c-31 14-63 25-93 32-31 8-60 11-87 11-45 0-76-12-94-36-18-25-27-71-27-137v-11l5-346-74 1-1-49 61-3c8 0 13-1 17-4 3-3 5-8 5-15l5-235h96l-6 249 85-4c16-1 33-2 49-4 17-1 35-4 53-6zm877 44h-41c-6 0-10-1-13-4s-5-7-5-12v-27h134l-1 43c-16 2-29 8-39 18-9 10-21 32-35 66l-198 479h-14l-148-409-176 409h-14l-188-524c-7-18-17-30-31-34-15-5-22-9-22-13v-35h201v43h-61l145 435 133-320-24-70c-8-22-19-36-34-41s-22-9-22-12v-35h200v43h-63l146 430 170-430zm287-290c-14 0-27-5-37-16-9-10-14-23-14-39 0-17 6-33 18-46s25-20 40-20c17 0 30 5 39 15 10 10 14 23 14 41 0 19-5 34-17 46-11 13-25 19-43 19zm-66 783v-448c0-13-2-22-6-25-3-3-12-5-26-7l-38-6v-39l166-22v547l76 6v35h-231c-8 0-14-1-17-4-4-3-5-8-5-15 0-6 1-10 5-14 3-3 9-5 15-5l61-3zm653-537v58l-162 4c-21 1-33 38-34 111v13l-3 189v27c0 67 7 110 21 129 14 20 39 30 77 30 19 0 37-2 54-4 17-3 34-8 50-13l3 13c-31 14-63 25-93 32-31 8-60 11-87 11-45 0-76-12-94-36-18-25-27-71-27-137v-11l5-346-74 1-1-49 61-3c8 0 13-1 17-4 3-3 5-8 5-15l5-235h96l-6 249 84-4c17-1 33-2 50-4 17-1 35-4 53-6zm478 0v58l-161 4c-22 1-33 38-34 111v13l-3 189v27c0 67 7 110 21 129 13 20 39 30 77 30 19 0 37-2 54-4 17-3 33-8 50-13l3 13c-32 14-63 25-94 32-30 8-59 11-86 11-45 0-76-12-94-36-18-25-27-71-27-137v-11l4-346-73 1-2-49 62-3c7 0 13-1 16-4 4-3 5-8 5-15l6-235h95l-5 249 84-4c16-1 33-2 50-4 17-1 34-4 52-6zm257 184h249c7 0 12-2 14-6s4-12 4-24c0-45-12-81-35-108-24-27-55-40-94-40-23 0-47 7-71 21-23 14-45 34-63 59-12 15-21 30-28 47-7 16-10 28-10 36 0 5 1 9 5 11 2 3 9 4 19 4h10zm340 251l22 12c-29 54-62 93-100 117s-84 36-140 36c-77 0-141-28-191-85-49-57-74-131-74-220 0-91 26-166 78-226s118-90 196-90c68 0 123 19 165 57 42 37 63 86 63 146-1 10-2 16-5 20-3 3-8 5-17 5h-343c-21 0-34 3-40 10-5 7-7 24-7 51 0 77 21 142 63 192 42 51 95 76 160 76 37 0 69-8 97-25 28-16 52-42 73-76zm316 110h68v33h-235v-33h69v-490h-72v-48l166-20 1 44c0 7 1 13 3 16 2 4 4 5 8 5 1 0 17-12 49-36 32-25 66-37 100-37 7 0 14 0 21 1 6 1 12 3 17 4v60c0 8-3 13-8 16s-18 4-38 4h-29c-13 0-25 0-33 1-8 0-16 0-24 1h-2c-41 2-61 14-61 35v444z"/>
   <path class="fil1" d="m20689 5090h69v33h-236v-33h70l-2-478-70-1v-42l72-6v-42c0-143 18-247 54-313 37-65 95-98 175-98 11 0 24 1 40 2 16 2 40 4 72 8l149 17-9 72-161-21c-34-5-66-8-95-10-30-3-51-4-65-4-25 0-42 13-50 39-9 25-13 96-13 212 0 15 1 47 2 94 1 17 1 31 2 40 70-1 137-3 202-5s127-4 186-7v543h68v33h-235v-33h69v-490l-258 4c-16 0-25 2-29 5-5 3-7 10-7 21v460zm650 0v-889c0-10-1-17-4-19-2-3-10-4-22-4l-77-2v-41c36-2 70-6 101-10 32-4 60-9 87-16h12v981h68v33h-234v-33h69zm368 0v-470l-80-4v-59l164-22 4 34c0 5 2 10 5 13 3 4 7 6 12 6 1 0 23-9 69-27 46-17 89-26 131-26s76 5 101 16c26 11 46 29 61 53 48-23 90-41 127-52s71-17 101-17c71 0 119 16 146 47 27 32 40 95 40 189v319h69v33h-236v-33h69v-405c0-38-11-66-34-83s-61-25-115-25c-47 0-83 6-108 18-24 12-37 30-37 54v441h68v33h-235v-33h70v-405c0-38-12-66-35-83s-62-25-115-25c-47 0-83 6-108 18-24 12-37 30-37 54v441h68v33h-235v-33h70z"/>
   <path class="fil1" d="m15181 4603l140-448-75-27 18-57 163 28-6 34c-1 5-1 10 1 14s5 7 10 9c0 0 24-2 73-5s93 2 133 14c67 21 109 50 124 88 16 38 10 102-19 193l-95 303 66 21-10 33-225-71 10-32 66 20 121-386c11-36 9-66-9-89-17-23-51-43-101-59-46-14-82-19-109-14-27 4-44 17-51 40l-132 420 65 21-10 32-224-70 10-33 66 21zm885-101l238 75c6 2 11 1 15-2 3-3 7-10 10-21 14-43 13-81-1-114-14-32-40-54-77-66-22-7-47-7-74-1s-53 18-79 37c-14 11-28 23-39 37-12 13-19 24-21 31-2 5-2 9 1 12 2 3 8 6 18 9l9 3zm249 341l17 18c-43 43-87 71-130 82-43 12-91 10-144-7-74-23-126-69-156-138-31-70-32-147-6-232 28-87 75-151 143-193 67-41 138-50 213-27 65 20 111 55 140 103 29 49 35 102 17 159-4 9-7 15-11 17-3 3-9 3-17 0l-327-102c-21-7-34-7-41-3-8 6-15 21-23 46-23 75-23 142 3 203 25 61 68 101 130 121 35 11 68 12 100 5 31-8 62-25 92-52zm979-103l-40-12c-5-1-9-4-11-8-1-3-2-7 0-12l8-26 127 39-14 42c-15-3-29-1-42 5-12 7-30 24-53 53l-332 397-14-4-18-434-290 338-14-5-23-556c-1-19-8-34-20-42s-17-15-16-18l10-34 192 60-13 41-58-18 8 459 223-266-3-74c0-24-7-40-19-50-13-9-19-15-18-17l11-34 191 60-13 41-61-19 12 454 290-360zm438 235l-24-8c4-47 1-83-10-108-11-26-31-43-60-52-28-9-55-7-79 6-25 12-42 32-50 59-11 35 14 90 76 164l13 14c1 3 5 7 9 12 60 70 80 133 63 190-16 48-45 84-89 107-43 22-90 26-140 10-24-7-48-19-72-34s-46-33-68-54l31-135 29 9c-7 49-3 90 12 122 15 33 39 55 72 65 30 10 57 7 82-7 25-13 43-36 52-67 9-28 9-55 0-81-10-25-35-61-76-108l-5-5c-64-73-88-138-70-194 14-43 41-75 81-94s84-21 132-6c21 6 42 17 62 31 21 14 41 33 63 57l-34 107z"/>
   <path class="fil1" d="m20771 9113c-15 0-27 1-35 4-7 2-15 6-23 11-26 21-47 43-62 67-14 25-22 48-22 70 0 39 16 70 47 93 30 23 72 35 123 35 81 0 150-19 207-55 57-37 86-79 86-129 0-16-3-30-10-42-6-11-15-19-27-24-20-7-57-14-111-21-54-6-111-9-173-9zm130-617c-54 0-96 16-127 48-31 33-47 76-47 132 0 47 13 84 38 111 26 28 61 41 106 41 42 0 73-13 91-40 19-27 28-72 28-134v-12c0-69-6-111-17-125s-35-21-72-21zm155-9l96-11h6c7 0 12 2 14 5 3 2 4 7 4 14 0 17-1 29-4 35-3 7-8 11-15 12l-84 13c1 20 2 37 3 51s1 24 1 31c0 60-14 109-41 145-28 36-69 61-125 74-22 5-52 11-90 17-91 17-136 45-136 86 0 21 8 37 25 47s50 16 101 20l161 12c69 6 118 20 149 43 31 24 47 58 47 104 0 74-33 134-99 182s-151 72-254 72c-68 0-121-17-159-49-38-33-57-79-57-138 0-31 7-60 20-88 13-27 33-54 59-79-21-13-37-27-47-43s-15-34-15-53c0-34 12-62 36-84 25-21 64-38 118-52-41-20-72-45-93-76s-31-66-31-106c0-63 19-115 59-155s92-61 154-61c37 0 75 10 115 28 12 6 20 9 23 9 6 0 19-1 39-3 9-1 16-2 20-2zm374 534h67v34h-234v-34h69v-490h-72v-47l166-21 1 44c0 8 1 13 3 17 2 3 4 5 8 5 1 0 17-13 49-37s65-37 100-37c7 0 14 1 20 2 7 1 13 2 18 4v60c0 7-3 13-8 16s-18 4-39 4h-61c-8 0-16 1-24 1h-3c-40 3-60 14-60 35v444zm579-540c-58 0-105 27-141 79-37 53-56 122-56 207 0 89 17 159 49 209 33 51 79 76 137 76 56 0 101-25 136-76 34-51 51-119 51-205 0-95-15-168-45-217-29-48-73-73-131-73zm4-26c83 0 150 28 201 82 50 54 76 125 76 214 0 96-28 174-82 235-55 60-125 91-211 91-90 0-161-28-212-82-52-55-77-130-77-225 0-94 28-169 84-228 57-58 131-87 221-87zm451 76h-73v-47l170-20v392c0 68 10 112 32 133s69 32 140 32c45 0 77-5 95-14 18-10 27-26 27-49v-427h-72v-47l169-20v516c0 10 2 16 5 19 3 4 7 6 14 6h51v39c-31 7-54 12-70 15s-28 4-36 4c-18 0-33-5-46-16-12-11-20-17-23-17-5 0-15 3-32 8-60 18-114 28-163 28-72 0-121-16-147-49-25-32-38-111-39-237l-2-249zm855 497c10 2 21 4 32 5 12 1 25 2 40 2 80 0 146-24 195-72 50-47 75-109 75-186 0-79-22-143-65-190-43-48-100-72-170-72-40 0-68 4-84 13-15 9-23 24-23 47v453zm-160 388v-34h62v-832c0-1-1-3-3-5s-4-3-5-3h-61v-42c0-4 1-7 4-10s7-5 12-6l138-19 7 32c1 2 3 5 5 7 3 3 7 4 12 5 2 0 24-7 64-22 41-14 80-21 116-21 73 0 133 29 182 85 48 56 72 128 72 215 0 88-29 160-87 216-57 56-131 84-221 84-20 0-41-2-64-5-23-4-48-10-73-17l4 338h89v34h-253z"/>
   <path class="fil1" d="m23288 8009h69v34h-236v-34h69l-1-477-71-1v-43l72-5v-42c0-143 18-248 55-313s95-98 174-98c11 0 25 1 41 2s40 4 72 7l149 18-9 72-162-21c-33-5-65-8-95-11-29-2-51-3-64-3-25 0-42 13-51 38-8 26-12 97-12 213 0 15 0 47 2 94 0 17 1 31 1 40 70-1 138-3 203-5s127-4 186-7v542h68v34h-235v-34h69v-490l-259 5c-15 0-25 1-29 5-4 3-6 10-6 21v459zm662 0v-469l-80-4v-60l164-21 4 34c0 5 2 9 5 13 3 3 7 5 12 5 1 0 23-9 69-26 46-18 89-26 131-26 70 0 119 15 145 47 26 31 39 94 39 189v318h69v34h-236v-34h70v-404c0-39-12-66-35-83s-62-25-115-25c-47 0-83 6-108 18-24 12-37 30-37 54v440h68v34h-235v-34h70zm1130-65v-406c0-19-8-32-22-40-15-7-40-11-76-11-80 0-143 24-190 71-46 47-69 110-69 191 0 79 22 141 65 188 44 46 102 70 175 70 44 0 74-5 91-14s26-26 26-49zm97 49c0 1 1 3 3 5s4 4 5 4l61-4v37l-160 19-1-32c0-2-2-5-5-8-4-2-7-3-10-3-2 0-10 2-22 8-58 23-113 35-166 35-75 0-137-27-186-82-49-54-73-124-73-208 0-93 28-167 84-224 57-57 132-85 226-85 37 0 74 5 113 15 9 3 14 4 16 4 5 0 9-2 13-5 3-3 5-7 5-12l-3-336c0-10-1-16-4-19-3-2-10-3-22-3l-77-2v-41c37-3 71-6 102-11 32-4 61-9 89-16h12v964z"/>
   <path class="fil1" d="m16829 9254v-888c0-11-2-17-4-19-2-3-10-4-22-4l-77-2v-41c36-3 70-6 101-10s60-10 87-16h12v980h68v34h-235v-34h70zm438-790c-15 0-27-5-37-16-10-10-15-23-15-39 0-17 6-33 18-46s26-20 41-20c16 0 30 5 39 15 9 9 14 23 14 41s-6 34-17 46c-11 13-26 19-43 19zm-67 783v-448c0-14-1-22-5-25s-13-6-27-7l-38-6v-40l167-21v547l76 6v35h-232c-7 0-13-1-16-4-4-3-6-8-6-15 0-6 2-10 6-14 3-3 8-5 15-5l60-3zm367 7v-887c0-10-2-16-4-19-3-2-10-4-22-4l-77-2v-41c36-3 70-6 102-11 31-4 60-9 86-16h12v701c0 4 1 8 3 10 1 3 3 5 5 5s5-1 7-3c2-1 4-4 7-7l191-213-61-8v-35l191-13v43c-24 0-45 3-62 8s-31 13-40 23l-160 164 234 262c11 12 21 21 32 28 10 7 21 11 30 13v36h-116l-225-259c-2-4-6-7-10-9s-7-3-11-3c-5 0-9 1-11 4-3 4-4 9-4 16v217h68v34h-235v-34h70zm682-360h249c7 0 11-2 14-6 2-4 4-12 4-24 0-45-12-81-35-108-24-27-55-40-94-40-23 0-47 7-71 21-23 14-45 33-64 59-11 15-20 30-27 47-7 16-10 28-10 36 0 5 1 9 4 11 3 3 10 4 20 4h10zm340 251l21 12c-28 54-61 93-99 117s-84 36-140 36c-77 0-141-28-191-85-49-57-74-131-74-220 0-91 26-166 78-226s117-90 196-90c68 0 122 19 164 57 43 37 64 86 64 146-1 10-2 16-5 20-3 3-9 5-17 5h-343c-21 0-34 3-40 10-5 7-8 24-8 51 0 77 22 142 64 192 42 51 95 76 160 76 37 0 69-8 97-25s52-42 73-76z"/>
   <path class="fil1" d="m6342 6953h-73v-49l73-5c0-6-1-15-1-27s-1-21-1-26c0-128 18-227 54-295 36-69 88-103 155-103 29 0 49 2 60 7 12 4 17 12 17 23v27c0 9 0 16-2 20-2 3-5 6-8 6-2 0-7-1-14-3-4-2-7-2-9-3l-44-10c-10-3-20-5-30-7-9-1-17-2-24-2-22 0-36 15-44 44s-12 107-12 234c0 29 0 50 1 65 0 15 0 29 1 42l98-4h9c32-2 57-4 77-6v62l-151 4c-15 1-25 3-29 6s-6 10-6 20v449h112v38h-274c-1-2-2-3-2-3v-4c0-2 0-4 1-7 0-4 1-6 1-7s-1-3-1-5c-1-2-1-5-1-6s0-3 1-4c0-1 0-2 1-2h65v-469zm654-67c-58 0-105 26-142 79s-55 122-55 207c0 89 16 158 49 209s79 76 137 76c56 0 101-26 136-77 34-51 51-119 51-204 0-96-15-168-45-217s-74-73-131-73zm4-26c83 0 150 27 200 81 51 54 76 126 76 215 0 96-27 174-81 235-55 60-125 90-212 90-89 0-160-27-211-82-52-54-77-129-77-224 0-94 28-170 84-228 57-58 130-87 221-87zm558 566h68v34h-235v-34h70v-490h-72v-47l165-21 2 44c0 8 0 13 2 16 2 4 5 5 8 5 1 0 18-12 49-36 33-25 66-37 101-37 7 0 14 1 20 1 6 1 12 3 18 4v60c0 8-3 14-8 16-6 3-19 5-39 5h-62c-8 0-16 0-23 1h-3c-40 3-61 14-61 35v444zm347-490h-73v-47l170-21v392c0 68 11 113 32 134 22 21 69 32 140 32 46 0 77-5 95-15 18-9 27-25 27-49v-426h-72v-47l170-21v517c0 9 1 16 4 19 3 4 8 5 14 5h51v40c-31 7-54 12-70 15-16 2-28 4-36 4-18 0-33-6-45-17-13-11-21-16-24-16-4 0-15 3-32 8-60 18-114 27-163 27-72 0-121-16-146-48-26-32-39-111-40-238l-2-248zm760 490v-470l-80-4v-59l164-22 4 34c1 5 3 10 6 13 3 4 7 6 12 6 0 0 23-9 69-27 45-17 88-26 130-26 43 0 77 5 102 16s45 29 61 53c47-23 90-41 127-52 36-11 70-17 101-17 70 0 119 16 146 47 26 32 40 95 40 189v319h69v34h-236v-34h69v-405c0-38-11-66-34-83s-62-25-115-25c-47 0-83 6-108 18s-37 30-37 54v441h68v34h-235v-34h69v-405c0-38-11-66-35-83-23-17-61-25-114-25-48 0-84 6-108 18-25 12-37 30-37 54v441h68v34h-235v-34h69z"/>
   <path class="fil1" d="m8669 9056c10 2 21 4 32 5s25 2 40 2c80 0 145-24 195-72 50-47 74-109 74-186 0-79-21-143-64-190-43-48-100-72-170-72-41 0-69 4-84 13-16 9-23 24-23 47v453zm-160 388v-34h62v-832c0-1-1-3-3-5s-4-3-6-3h-60v-42c0-4 1-7 4-10s7-5 12-6l137-19 8 32c1 3 2 5 5 8 3 2 7 3 11 4 3 0 24-7 65-22 41-14 79-21 116-21 73 0 133 29 181 85 49 56 72 128 72 215 0 88-28 160-86 216s-131 84-221 84c-20 0-42-2-65-5-22-4-47-9-72-16l4 337h89v34h-253zm791-395v-888c0-10-2-17-4-19-3-3-10-4-22-4l-78-2v-40c37-3 71-7 102-11 32-4 61-10 87-17h12v456c0 6 2 10 5 14 3 3 7 5 12 5 3 0 14-3 31-10 60-26 113-39 159-39 71 0 120 16 146 47 26 32 39 95 39 190v318h69v34h-236v-34h69v-405c0-38-11-66-34-83-23-16-62-25-115-25-47 0-83 6-108 19-24 12-37 30-37 53v441h68v34h-235v-34h70zm972-540c-57 0-104 27-141 79-37 53-56 122-56 207 0 89 17 159 50 209 33 51 78 76 136 76 57 0 102-25 136-76s51-119 51-205c0-95-14-168-44-217-30-48-74-73-132-73zm5-26c83 0 150 28 200 82 51 54 76 125 76 214 0 96-27 174-82 235-54 60-125 91-211 91-90 0-160-28-212-82-51-55-77-130-77-225 0-93 28-169 85-228 56-58 130-87 221-87zm747 21v58l-162 4c-22 1-33 38-34 112v13l-3 189v27c0 66 7 109 21 129 13 20 39 29 77 29 19 0 37-1 54-4s34-7 50-13l3 13c-32 14-63 25-94 33-30 7-59 11-86 11-45 0-76-13-94-37s-27-70-27-137v-11l4-346-73 2-2-49 62-3c8 0 13-1 16-5 4-3 5-8 5-15l6-235h95l-5 250 84-4c17-1 33-2 50-4s34-4 53-7zm414 5c-57 0-104 27-141 79-37 53-55 122-55 207 0 89 16 159 49 209 33 51 78 76 136 76 57 0 102-25 136-76s52-119 52-205c0-95-15-168-45-217-30-48-74-73-132-73zm5-26c83 0 150 28 200 82 51 54 76 125 76 214 0 96-27 174-82 235-54 60-125 91-211 91-90 0-160-28-212-82-51-55-77-130-77-225 0-93 28-169 85-228 56-58 130-87 221-87z"/>
   <path class="fil1" d="m15436 791v58l-161 4c-22 1-33 38-34 111v14l-3 188v27c0 67 7 110 21 129 13 20 39 30 77 30 19 0 37-1 54-4s34-8 50-13l3 13c-32 14-63 25-94 32-30 8-59 11-86 11-45 0-76-12-94-36-18-25-27-70-27-137v-11l4-346-73 1-2-49 62-2c8 0 13-2 16-5 4-3 5-8 5-15l6-235h95l-5 249 84-4c17 0 33-2 50-4 17-1 34-4 52-6zm442 474v-164c-75 7-134 24-176 52-42 27-64 62-64 104 0 24 8 43 22 58 14 14 33 22 56 22 22 0 46-4 73-12 26-7 50-17 72-30 7-4 11-8 14-13 2-4 3-9 3-17zm0-180l9-212v-3c0-21-8-36-23-46-16-10-41-15-75-15-18 0-36 2-55 6-19 3-39 9-59 16-4 53-10 89-20 109-10 19-25 29-45 29-9 0-16-4-20-12-4-7-6-19-6-35 0-24 3-40 8-50s14-21 28-32c28-20 64-37 106-50 43-13 85-20 126-20 40 0 72 10 95 30 23 19 34 46 34 80v441l71-2v36c-30 9-57 16-80 21-22 4-39 7-50 7-17 0-29-4-36-10s-10-17-10-32l2-22c0-2 0-4-2-6-1-1-3-2-4-2-2 0-4 1-8 2-3 1-7 3-11 5l-70 40c-19 11-39 19-59 25-19 5-39 8-59 8-33 0-60-11-82-33-22-23-33-52-33-86 0-58 28-103 83-134 56-32 138-49 245-53zm444 343c-16 0-27 1-35 3s-16 6-23 12c-27 20-48 43-62 67-15 24-22 47-22 69 0 39 15 70 46 93 31 24 72 35 123 35 81 0 150-18 207-54 58-37 86-80 86-129 0-17-3-30-9-42-7-11-16-20-28-24-20-8-57-15-110-21-54-6-112-9-173-9zm129-617c-53 0-96 16-127 48s-47 76-47 131c0 47 13 85 39 112 25 27 61 41 105 41 43 0 73-14 92-41 18-27 27-72 27-134v-11c0-69-5-111-17-125-11-14-35-21-72-21zm156-10l95-10h7c6 0 11 1 14 4 2 3 4 8 4 14 0 18-2 30-5 36-3 7-8 11-15 12l-84 13c1 19 3 37 3 51 1 14 1 24 1 31 0 60-14 109-41 145s-69 60-124 73c-22 5-52 11-90 18-91 16-137 45-137 85 0 22 9 38 25 47 17 10 51 17 101 21l162 12c68 5 118 20 149 43s46 58 46 104c0 73-33 134-99 181-66 48-150 72-253 72-69 0-122-16-159-49-38-32-57-78-57-138 0-30 6-59 19-87 13-27 33-54 59-80-21-13-36-27-47-43-10-16-15-33-15-53 0-34 12-61 36-83 25-21 64-39 118-53-40-19-71-44-92-75s-32-67-32-107c0-63 20-115 60-155s91-60 153-60c37 0 76 9 116 28 11 6 19 9 22 9 6 0 19-1 39-4 9 0 16-1 21-2z"/>
   <path class="fil1" d="m13167 9380h-26c-10-46-24-79-42-100s-42-31-72-31-55 9-75 28c-20 20-30 43-30 72 0 37 41 82 122 134l17 10c2 1 6 4 12 8 78 49 117 103 117 162 0 51-18 94-53 129s-78 52-130 52c-26 0-52-4-79-11-28-7-55-18-82-31l-10-138h30c8 48 24 86 48 113 24 26 54 40 88 40 32 0 57-11 77-31 20-21 29-48 29-80 0-30-8-55-25-77-16-22-51-48-104-81l-6-3c-84-51-125-105-125-164 0-46 16-84 49-114s74-46 124-46c23 0 45 4 69 12 24 7 49 19 77 35v112zm228 408v-888c0-10-2-16-4-19-3-2-10-3-22-3l-77-2v-41c36-3 70-6 101-11 32-4 61-9 87-16h12v455c0 6 2 10 5 14s7 5 12 5c3 0 14-3 31-10 60-26 113-38 160-38 70 0 119 15 145 47 26 31 39 94 39 189v318h69v34h-236v-34h70v-404c0-39-12-66-35-83s-61-25-115-25c-47 0-83 6-108 18-24 12-37 30-37 53v441h68v34h-235v-34h70zm999-70v-164c-75 6-134 23-176 51s-64 63-64 105c0 23 8 43 22 58 14 14 33 22 56 22 22 0 46-4 73-12 26-8 51-18 72-31 7-3 11-8 14-12 2-4 3-10 3-17zm0-181l9-211v-3c0-21-8-37-23-46-16-10-41-15-75-15-18 0-36 2-55 5-19 4-39 9-59 17-4 52-10 89-20 108-10 20-25 30-45 30-9 0-16-4-20-12s-6-20-6-36c0-23 3-40 8-50 5-9 14-20 28-31 28-20 64-37 107-50 42-14 84-20 125-20 40 0 72 10 95 29 23 20 34 47 34 81v440l71-1v35c-30 9-57 16-80 21-22 5-39 7-50 7-17 0-29-3-36-9s-10-17-10-32l2-22c0-3 0-5-2-6-1-1-3-2-4-2-2 0-4 1-8 2-3 1-7 2-11 5l-70 39c-19 12-39 20-59 25-19 6-39 9-59 9-33 0-60-11-82-34-22-22-33-51-33-85 0-58 28-103 83-134 56-32 138-50 245-54zm463 251h68v34h-235v-34h69v-489h-71v-48l165-20 1 44c0 7 1 13 3 16s5 5 8 5c1 0 17-12 49-37 32-24 66-36 101-36 7 0 13 0 20 1 6 1 12 2 17 4v60c0 8-2 13-8 16-5 3-18 4-38 4h-62c-8 1-16 1-23 2h-3c-41 2-61 14-61 35v443zm397-360h250c6 0 11-2 13-6 3-4 4-12 4-24 0-45-12-81-35-108-24-27-55-40-94-40-23 0-46 7-70 21s-45 33-64 59c-11 15-20 30-27 46-7 17-11 29-11 37 0 5 2 9 5 11s10 4 20 4h9zm340 250l22 12c-29 55-62 94-100 118s-84 36-139 36c-78 0-142-29-191-86-50-56-75-130-75-219 0-91 26-167 79-226 52-60 117-90 195-90 68 0 123 19 165 57 42 37 63 86 63 146 0 10-2 16-5 20-3 3-8 5-17 5h-342c-22 0-35 3-40 10s-8 24-8 50c0 78 21 142 63 193s96 76 161 76c36 0 68-8 96-25s52-42 73-77z"/>
</svg>
