<?xml version="1.0" encoding="UTF-8"?>
<svg version="1.1" viewBox="0 0 1041.6 1046.3" xmlns="http://www.w3.org/2000/svg">
 <g transform="translate(-9.7982 -1.04)">
  <g transform="matrix(.17067 0 0 .17067 134.62 876.74)">
   <g stroke="#000">
    <path d="m-730.51-596.44 0.6853 412.62l1177.1 1182.9 410.56-410.32-1178.5-1184z" fill="#fca"/>
    <path d="m446.92 586.98 411.39 1.1671-410.8 410.8z" stroke-width=".38"/>
    <path d="m-730.86-595.5 1177.5 1181.3 411.18 2.2167-1178.6-1182.5z" fill="#6c5353"/>
   </g>
  </g>
  <g transform="matrix(.17067 0 0 .17067 204.5 806.51)">
   <g stroke="#000">
    <path d="m-730.51-596.44 0.6853 412.62l1177.1 1182.9 410.56-410.32-1178.5-1184z" fill="#fca"/>
    <path d="m446.92 586.98 411.39 1.1671-410.8 410.8z" stroke-width=".38"/>
    <path d="m-730.86-595.5 1177.5 1181.3 411.18 2.2167-1178.6-1182.5z" fill="#6c5353"/>
   </g>
  </g>
  <g transform="matrix(.17067 0 0 .17067 274.56 735.71)">
   <g stroke="#000">
    <path d="m-730.51-596.44 0.6853 412.62l1177.1 1182.9 410.56-410.32-1178.5-1184z" fill="#fca"/>
    <path d="m446.92 586.98 411.39 1.1671-410.8 410.8z" stroke-width=".38"/>
    <path d="m-730.86-595.5 1177.5 1181.3 411.18 2.2167-1178.6-1182.5z" fill="#6c5353"/>
   </g>
  </g>
  <g transform="matrix(.17067 0 0 .17067 344.8 665.22)">
   <g stroke="#000">
    <path d="m-730.51-596.44 0.6853 412.62l1177.1 1182.9 410.56-410.32-1178.5-1184z" fill="#fca"/>
    <path d="m446.92 586.98 411.39 1.1671-410.8 410.8z" stroke-width=".38"/>
    <path d="m-730.86-595.5 1177.5 1181.3 411.18 2.2167-1178.6-1182.5z" fill="#6c5353"/>
   </g>
  </g>
  <g transform="matrix(.17067 0 0 .17067 414.94 594.82)">
   <g stroke="#000">
    <path d="m-730.51-596.44 0.6853 412.62l1177.1 1182.9 410.56-410.32-1178.5-1184z" fill="#fca"/>
    <path d="m446.92 586.98 411.39 1.1671-410.8 410.8z" stroke-width=".38"/>
    <path d="m-730.86-595.5 1177.5 1181.3 411.18 2.2167-1178.6-1182.5z" fill="#6c5353"/>
   </g>
  </g>
  <g transform="matrix(.17067 0 0 .17067 484.98 524.73)">
   <g stroke="#000">
    <path d="m-730.51-596.44 0.6853 412.62l1177.1 1182.9 410.56-410.32-1178.5-1184z" fill="#fca"/>
    <path d="m446.92 586.98 411.39 1.1671-410.8 410.8z" stroke-width=".38"/>
    <path d="m-730.86-595.5 1177.5 1181.3 411.18 2.2167-1178.6-1182.5z" fill="#6c5353"/>
   </g>
  </g>
  <g transform="matrix(.17067 0 0 .17067 554.79 454.78)">
   <g stroke="#000">
    <path d="m-730.51-596.44 0.6853 412.62l1177.1 1182.9 410.56-410.32-1178.5-1184z" fill="#fca"/>
    <path d="m446.92 586.98 411.39 1.1671-410.8 410.8z" stroke-width=".38"/>
    <path d="m-730.86-595.5 1177.5 1181.3 411.18 2.2167-1178.6-1182.5z" fill="#6c5353"/>
   </g>
  </g>
  <g transform="matrix(.17067 0 0 .17067 624.63 384.49)">
   <g stroke="#000">
    <path d="m-730.51-596.44 0.6853 412.62l1177.1 1182.9 410.56-410.32-1178.5-1184z" fill="#fca"/>
    <path d="m446.92 586.98 411.39 1.1671-410.8 410.8z" stroke-width=".38"/>
    <path d="m-730.86-595.5 1177.5 1181.3 411.18 2.2167-1178.6-1182.5z" fill="#6c5353"/>
   </g>
  </g>
  <g transform="matrix(.17067 0 0 .17067 694.67 314.26)">
   <g stroke="#000">
    <path d="m-730.51-596.44 0.6853 412.62l1177.1 1182.9 410.56-410.32-1178.5-1184z" fill="#fca"/>
    <path d="m446.92 586.98 411.39 1.1671-410.8 410.8z" stroke-width=".38"/>
    <path d="m-730.86-595.5 1177.5 1181.3 411.18 2.2167-1178.6-1182.5z" fill="#6c5353"/>
   </g>
  </g>
  <g transform="matrix(.17067 0 0 .17067 764.54 243.99)">
   <g stroke="#000">
    <path d="m-730.51-596.44 0.6853 412.62l1177.1 1182.9 410.56-410.32-1178.5-1184z" fill="#fca"/>
    <path d="m446.92 586.98 411.39 1.1671-410.8 410.8z" stroke-width=".38"/>
    <path d="m-730.86-595.5 1177.5 1181.3 411.18 2.2167-1178.6-1182.5z" fill="#6c5353"/>
   </g>
  </g>
  <g transform="matrix(.17067 0 0 .17067 834.97 173.5)">
   <g stroke="#000">
    <path d="m-730.51-596.44 0.6853 412.62l1177.1 1182.9 410.56-410.32-1178.5-1184z" fill="#fca"/>
    <path d="m446.92 586.98 411.39 1.1671-410.8 410.8z" stroke-width=".38"/>
    <path d="m-730.86-595.5 1177.5 1181.3 411.18 2.2167-1178.6-1182.5z" fill="#6c5353"/>
   </g>
  </g>
  <g transform="matrix(.17067 0 0 .17067 904.88 102.92)">
   <g stroke="#000">
    <path d="m-730.51-596.44 0.6853 412.62l1177.1 1182.9 410.56-410.32-1178.5-1184z" fill="#fca"/>
    <path d="m446.92 586.98 411.39 1.1671-410.8 410.8z" stroke-width=".38"/>
    <path d="m-730.86-595.5 1177.5 1181.3 411.18 2.2167-1178.6-1182.5z" fill="#6c5353"/>
   </g>
  </g>
 </g>
</svg>
